<svg width="83" height="70" viewBox="0 0 83 70" fill="none" xmlns="http://www.w3.org/2000/svg">
<g clip-path="url(#clip0_2205_20570)">
<path d="M82.9826 1.07871C82.9826 0.210029 82.6653 -0.00813243 81.868 0.00178399C81.0469 0.0117004 80.2258 0.0176503 79.4047 0.0196335C78.2009 0.0236001 76.997 0.0216168 75.7932 0.0196335H0.856779C0.0832979 0.0414497 0.0237994 0.208045 0.0237994 1.2215C0.0198328 7.27647 0.0218161 13.3294 0.0198328 19.3844C0.0158663 35.8754 0.013883 52.3664 0 68.8554C0 69.6131 0.146763 69.9978 1.05312 69.9978C28.0079 69.976 54.9647 69.976 81.9195 69.9919C82.6851 69.9919 82.9806 69.7995 82.9806 68.9725C82.9608 46.3412 82.9608 23.71 82.9806 1.07672L82.9826 1.07871ZM81.8957 68.8693H1.16815V20.3642H81.8938V68.8693H81.8957Z" fill="#54A6FF"/>
<path d="M7.29197 37.1509H6.84375V37.375H7.29197V37.1509Z" fill="#A6BDF8"/>
<path d="M74.8299 37.375H73.9414V37.1509H74.8299V37.375ZM73.0509 37.375H72.1624V37.1509H73.0509V37.375ZM71.2739 37.375H70.3854V37.1509H71.2739V37.375ZM69.4969 37.375H68.6084V37.1509H69.4969V37.375ZM67.7198 37.375H66.8313V37.1509H67.7198V37.375ZM65.9428 37.375H65.0543V37.1509H65.9428V37.375ZM64.1658 37.375H63.2773V37.1509H64.1658V37.375ZM62.3888 37.375H61.5003V37.1509H62.3888V37.375ZM60.6098 37.375H59.7213V37.1509H60.6098V37.375ZM58.8328 37.375H57.9442V37.1509H58.8328V37.375ZM57.0557 37.375H56.1672V37.1509H57.0557V37.375ZM55.2787 37.375H54.3902V37.1509H55.2787V37.375ZM53.5017 37.375H52.6132V37.1509H53.5017V37.375ZM51.7247 37.375H50.8362V37.1509H51.7247V37.375ZM49.9457 37.375H49.0571V37.1509H49.9457V37.375ZM48.1686 37.375H47.2801V37.1509H48.1686V37.375ZM46.3916 37.375H45.5031V37.1509H46.3916V37.375ZM44.6146 37.375H43.7261V37.1509H44.6146V37.375ZM42.8376 37.375H41.9491V37.1509H42.8376V37.375ZM41.0605 37.375H40.172V37.1509H41.0605V37.375ZM39.2835 37.375H38.395V37.1509H39.2835V37.375ZM37.5045 37.375H36.616V37.1509H37.5045V37.375ZM35.7275 37.375H34.839V37.1509H35.7275V37.375ZM33.9505 37.375H33.062V37.1509H33.9505V37.375ZM32.1735 37.375H31.2849V37.1509H32.1735V37.375ZM30.3964 37.375H29.5079V37.1509H30.3964V37.375ZM28.6194 37.375H27.7309V37.1509H28.6194V37.375ZM26.8424 37.375H25.9539V37.1509H26.8424V37.375ZM25.0634 37.375H24.1749V37.1509H25.0634V37.375ZM23.2864 37.375H22.3978V37.1509H23.2864V37.375ZM21.5093 37.375H20.6208V37.1509H21.5093V37.375ZM19.7323 37.375H18.8438V37.1509H19.7323V37.375ZM17.9553 37.375H17.0668V37.1509H17.9553V37.375ZM16.1783 37.375H15.2898V37.1509H16.1783V37.375ZM14.4012 37.375H13.5127V37.1509H14.4012V37.375ZM12.6222 37.375H11.7337V37.1509H12.6222V37.375ZM10.8452 37.375H9.95671V37.1509H10.8452V37.375ZM9.0682 37.375H8.17969V37.1509H9.0682V37.375Z" fill="#A6BDF8"/>
<path d="M76.167 37.1509H75.7188V37.375H76.167V37.1509Z" fill="#A6BDF8"/>
<path d="M19.3999 21.3618H19.1758V21.81H19.3999V21.3618Z" fill="#13489E"/>
<path d="M19.3999 66.4083H19.1758V65.5158H19.3999V66.4083ZM19.3999 64.6233H19.1758V63.7309H19.3999V64.6233ZM19.3999 62.8404H19.1758V61.9479H19.3999V62.8404ZM19.3999 61.0554H19.1758V60.1629H19.3999V61.0554ZM19.3999 59.2724H19.1758V58.38H19.3999V59.2724ZM19.3999 57.4875H19.1758V56.595H19.3999V57.4875ZM19.3999 55.7045H19.1758V54.812H19.3999V55.7045ZM19.3999 53.9196H19.1758V53.0271H19.3999V53.9196ZM19.3999 52.1366H19.1758V51.2441H19.3999V52.1366ZM19.3999 50.3516H19.1758V49.4592H19.3999V50.3516ZM19.3999 48.5687H19.1758V47.6762H19.3999V48.5687ZM19.3999 46.7837H19.1758V45.8912H19.3999V46.7837ZM19.3999 45.0007H19.1758V44.1082H19.3999V45.0007ZM19.3999 43.2158H19.1758V42.3233H19.3999V43.2158ZM19.3999 41.4328H19.1758V40.5403H19.3999V41.4328ZM19.3999 39.6478H19.1758V38.7554H19.3999V39.6478ZM19.3999 37.8649H19.1758V36.9724H19.3999V37.8649ZM19.3999 36.0799H19.1758V35.1874H19.3999V36.0799ZM19.3999 34.2969H19.1758V33.4045H19.3999V34.2969ZM19.3999 32.512H19.1758V31.6195H19.3999V32.512ZM19.3999 30.729H19.1758V29.8365H19.3999V30.729ZM19.3999 28.9441H19.1758V28.0516H19.3999V28.9441ZM19.3999 27.1611H19.1758V26.2686H19.3999V27.1611ZM19.3999 25.3761H19.1758V24.4837H19.3999V25.3761ZM19.3999 23.5932H19.1758V22.7007H19.3999V23.5932Z" fill="#13489E"/>
<path d="M19.3999 67.2988H19.1758V67.7471H19.3999V67.2988Z" fill="#13489E"/>
<path d="M34.2124 21.3618H33.9883V21.81H34.2124V21.3618Z" fill="#A6BDF8"/>
<path d="M34.2124 66.4083H33.9883V65.5158H34.2124V66.4083ZM34.2124 64.6233H33.9883V63.7309H34.2124V64.6233ZM34.2124 62.8404H33.9883V61.9479H34.2124V62.8404ZM34.2124 61.0554H33.9883V60.1629H34.2124V61.0554ZM34.2124 59.2724H33.9883V58.38H34.2124V59.2724ZM34.2124 57.4875H33.9883V56.595H34.2124V57.4875ZM34.2124 55.7045H33.9883V54.812H34.2124V55.7045ZM34.2124 53.9196H33.9883V53.0271H34.2124V53.9196ZM34.2124 52.1366H33.9883V51.2441H34.2124V52.1366ZM34.2124 50.3516H33.9883V49.4592H34.2124V50.3516ZM34.2124 48.5687H33.9883V47.6762H34.2124V48.5687ZM34.2124 46.7837H33.9883V45.8912H34.2124V46.7837ZM34.2124 45.0007H33.9883V44.1082H34.2124V45.0007ZM34.2124 43.2158H33.9883V42.3233H34.2124V43.2158ZM34.2124 41.4328H33.9883V40.5403H34.2124V41.4328ZM34.2124 39.6478H33.9883V38.7554H34.2124V39.6478ZM34.2124 37.8649H33.9883V36.9724H34.2124V37.8649ZM34.2124 36.0799H33.9883V35.1874H34.2124V36.0799ZM34.2124 34.2969H33.9883V33.4045H34.2124V34.2969ZM34.2124 32.512H33.9883V31.6195H34.2124V32.512ZM34.2124 30.729H33.9883V29.8365H34.2124V30.729ZM34.2124 28.9441H33.9883V28.0516H34.2124V28.9441ZM34.2124 27.1611H33.9883V26.2686H34.2124V27.1611ZM34.2124 25.3761H33.9883V24.4837H34.2124V25.3761ZM34.2124 23.5932H33.9883V22.7007H34.2124V23.5932Z" fill="#A6BDF8"/>
<path d="M34.2124 67.2988H33.9883V67.7471H34.2124V67.2988Z" fill="#A6BDF8"/>
<path d="M49.0288 21.3618H48.8047V21.81H49.0288V21.3618Z" fill="#A6BDF8"/>
<path d="M49.0249 66.4083H48.8008V65.5158H49.0249V66.4083ZM49.0249 64.6233H48.8008V63.7309H49.0249V64.6233ZM49.0249 62.8404H48.8008V61.9479H49.0249V62.8404ZM49.0249 61.0554H48.8008V60.1629H49.0249V61.0554ZM49.0249 59.2724H48.8008V58.38H49.0249V59.2724ZM49.0249 57.4875H48.8008V56.595H49.0249V57.4875ZM49.0249 55.7045H48.8008V54.812H49.0249V55.7045ZM49.0249 53.9196H48.8008V53.0271H49.0249V53.9196ZM49.0249 52.1366H48.8008V51.2441H49.0249V52.1366ZM49.0249 50.3516H48.8008V49.4592H49.0249V50.3516ZM49.0249 48.5687H48.8008V47.6762H49.0249V48.5687ZM49.0249 46.7837H48.8008V45.8912H49.0249V46.7837ZM49.0249 45.0007H48.8008V44.1082H49.0249V45.0007ZM49.0249 43.2158H48.8008V42.3233H49.0249V43.2158ZM49.0249 41.4328H48.8008V40.5403H49.0249V41.4328ZM49.0249 39.6478H48.8008V38.7554H49.0249V39.6478ZM49.0249 37.8649H48.8008V36.9724H49.0249V37.8649ZM49.0249 36.0799H48.8008V35.1874H49.0249V36.0799ZM49.0249 34.2969H48.8008V33.4045H49.0249V34.2969ZM49.0249 32.512H48.8008V31.6195H49.0249V32.512ZM49.0249 30.729H48.8008V29.8365H49.0249V30.729ZM49.0249 28.9441H48.8008V28.0516H49.0249V28.9441ZM49.0249 27.1611H48.8008V26.2686H49.0249V27.1611ZM49.0249 25.3761H48.8008V24.4837H49.0249V25.3761ZM49.0249 23.5932H48.8008V22.7007H49.0249V23.5932Z" fill="#A6BDF8"/>
<path d="M49.0288 67.2988H48.8047V67.7471H49.0288V67.2988Z" fill="#A6BDF8"/>
<path d="M63.8413 21.3618H63.6172V21.81H63.8413V21.3618Z" fill="#A6BDF8"/>
<path d="M63.8413 66.4083H63.6172V65.5158H63.8413V66.4083ZM63.8413 64.6233H63.6172V63.7309H63.8413V64.6233ZM63.8413 62.8404H63.6172V61.9479H63.8413V62.8404ZM63.8413 61.0554H63.6172V60.1629H63.8413V61.0554ZM63.8413 59.2724H63.6172V58.38H63.8413V59.2724ZM63.8413 57.4875H63.6172V56.595H63.8413V57.4875ZM63.8413 55.7045H63.6172V54.812H63.8413V55.7045ZM63.8413 53.9196H63.6172V53.0271H63.8413V53.9196ZM63.8413 52.1366H63.6172V51.2441H63.8413V52.1366ZM63.8413 50.3516H63.6172V49.4592H63.8413V50.3516ZM63.8413 48.5687H63.6172V47.6762H63.8413V48.5687ZM63.8413 46.7837H63.6172V45.8912H63.8413V46.7837ZM63.8413 45.0007H63.6172V44.1082H63.8413V45.0007ZM63.8413 43.2158H63.6172V42.3233H63.8413V43.2158ZM63.8413 41.4328H63.6172V40.5403H63.8413V41.4328ZM63.8413 39.6478H63.6172V38.7554H63.8413V39.6478ZM63.8413 37.8649H63.6172V36.9724H63.8413V37.8649ZM63.8413 36.0799H63.6172V35.1874H63.8413V36.0799ZM63.8413 34.2969H63.6172V33.4045H63.8413V34.2969ZM63.8413 32.512H63.6172V31.6195H63.8413V32.512ZM63.8413 30.729H63.6172V29.8365H63.8413V30.729ZM63.8413 28.9441H63.6172V28.0516H63.8413V28.9441ZM63.8413 27.1611H63.6172V26.2686H63.8413V27.1611ZM63.8413 25.3761H63.6172V24.4837H63.8413V25.3761ZM63.8413 23.5932H63.6172V22.7007H63.8413V23.5932Z" fill="#A6BDF8"/>
<path d="M63.8413 67.2988H63.6172V67.7471H63.8413V67.2988Z" fill="#A6BDF8"/>
<path d="M7.29197 51.355H6.84375V51.5791H7.29197V51.355Z" fill="#A6BDF8"/>
<path d="M74.8299 51.5791H73.9414V51.355H74.8299V51.5791ZM73.0509 51.5791H72.1624V51.355H73.0509V51.5791ZM71.2739 51.5791H70.3854V51.355H71.2739V51.5791ZM69.4969 51.5791H68.6084V51.355H69.4969V51.5791ZM67.7198 51.5791H66.8313V51.355H67.7198V51.5791ZM65.9428 51.5791H65.0543V51.355H65.9428V51.5791ZM64.1658 51.5791H63.2773V51.355H64.1658V51.5791ZM62.3888 51.5791H61.5003V51.355H62.3888V51.5791ZM60.6098 51.5791H59.7213V51.355H60.6098V51.5791ZM58.8328 51.5791H57.9442V51.355H58.8328V51.5791ZM57.0557 51.5791H56.1672V51.355H57.0557V51.5791ZM55.2787 51.5791H54.3902V51.355H55.2787V51.5791ZM53.5017 51.5791H52.6132V51.355H53.5017V51.5791ZM51.7247 51.5791H50.8362V51.355H51.7247V51.5791ZM49.9457 51.5791H49.0571V51.355H49.9457V51.5791ZM48.1686 51.5791H47.2801V51.355H48.1686V51.5791ZM46.3916 51.5791H45.5031V51.355H46.3916V51.5791ZM44.6146 51.5791H43.7261V51.355H44.6146V51.5791ZM42.8376 51.5791H41.9491V51.355H42.8376V51.5791ZM41.0605 51.5791H40.172V51.355H41.0605V51.5791ZM39.2835 51.5791H38.395V51.355H39.2835V51.5791ZM37.5045 51.5791H36.616V51.355H37.5045V51.5791ZM35.7275 51.5791H34.839V51.355H35.7275V51.5791ZM33.9505 51.5791H33.062V51.355H33.9505V51.5791ZM32.1735 51.5791H31.2849V51.355H32.1735V51.5791ZM30.3964 51.5791H29.5079V51.355H30.3964V51.5791ZM28.6194 51.5791H27.7309V51.355H28.6194V51.5791ZM26.8424 51.5791H25.9539V51.355H26.8424V51.5791ZM25.0634 51.5791H24.1749V51.355H25.0634V51.5791ZM23.2864 51.5791H22.3978V51.355H23.2864V51.5791ZM21.5093 51.5791H20.6208V51.355H21.5093V51.5791ZM19.7323 51.5791H18.8438V51.355H19.7323V51.5791ZM17.9553 51.5791H17.0668V51.355H17.9553V51.5791ZM16.1783 51.5791H15.2898V51.355H16.1783V51.5791ZM14.4012 51.5791H13.5127V51.355H14.4012V51.5791ZM12.6222 51.5791H11.7337V51.355H12.6222V51.5791ZM10.8452 51.5791H9.95671V51.355H10.8452V51.5791ZM9.0682 51.5791H8.17969V51.355H9.0682V51.5791Z" fill="#A6BDF8"/>
<path d="M76.167 51.355H75.7188V51.5791H76.167V51.355Z" fill="#A6BDF8"/>
<path d="M7.29197 65.5576H6.84375V65.7817H7.29197V65.5576Z" fill="#A6BDF8"/>
<path d="M74.8299 65.7817H73.9414V65.5576H74.8299V65.7817ZM73.0509 65.7817H72.1624V65.5576H73.0509V65.7817ZM71.2739 65.7817H70.3854V65.5576H71.2739V65.7817ZM69.4969 65.7817H68.6084V65.5576H69.4969V65.7817ZM67.7198 65.7817H66.8313V65.5576H67.7198V65.7817ZM65.9428 65.7817H65.0543V65.5576H65.9428V65.7817ZM64.1658 65.7817H63.2773V65.5576H64.1658V65.7817ZM62.3888 65.7817H61.5003V65.5576H62.3888V65.7817ZM60.6098 65.7817H59.7213V65.5576H60.6098V65.7817ZM58.8328 65.7817H57.9442V65.5576H58.8328V65.7817ZM57.0557 65.7817H56.1672V65.5576H57.0557V65.7817ZM55.2787 65.7817H54.3902V65.5576H55.2787V65.7817ZM53.5017 65.7817H52.6132V65.5576H53.5017V65.7817ZM51.7247 65.7817H50.8362V65.5576H51.7247V65.7817ZM49.9457 65.7817H49.0571V65.5576H49.9457V65.7817ZM48.1686 65.7817H47.2801V65.5576H48.1686V65.7817ZM46.3916 65.7817H45.5031V65.5576H46.3916V65.7817ZM44.6146 65.7817H43.7261V65.5576H44.6146V65.7817ZM42.8376 65.7817H41.9491V65.5576H42.8376V65.7817ZM41.0605 65.7817H40.172V65.5576H41.0605V65.7817ZM39.2835 65.7817H38.395V65.5576H39.2835V65.7817ZM37.5045 65.7817H36.616V65.5576H37.5045V65.7817ZM35.7275 65.7817H34.839V65.5576H35.7275V65.7817ZM33.9505 65.7817H33.062V65.5576H33.9505V65.7817ZM32.1735 65.7817H31.2849V65.5576H32.1735V65.7817ZM30.3964 65.7817H29.5079V65.5576H30.3964V65.7817ZM28.6194 65.7817H27.7309V65.5576H28.6194V65.7817ZM26.8424 65.7817H25.9539V65.5576H26.8424V65.7817ZM25.0634 65.7817H24.1749V65.5576H25.0634V65.7817ZM23.2864 65.7817H22.3978V65.5576H23.2864V65.7817ZM21.5093 65.7817H20.6208V65.5576H21.5093V65.7817ZM19.7323 65.7817H18.8438V65.5576H19.7323V65.7817ZM17.9553 65.7817H17.0668V65.5576H17.9553V65.7817ZM16.1783 65.7817H15.2898V65.5576H16.1783V65.7817ZM14.4012 65.7817H13.5127V65.5576H14.4012V65.7817ZM12.6222 65.7817H11.7337V65.5576H12.6222V65.7817ZM10.8452 65.7817H9.95671V65.5576H10.8452V65.7817ZM9.0682 65.7817H8.17969V65.5576H9.0682V65.7817Z" fill="#A6BDF8"/>
<path d="M76.167 65.5576H75.7188V65.7817H76.167V65.5576Z" fill="#A6BDF8"/>
<path d="M7.29197 23.9839H6.84375V24.208H7.29197V23.9839Z" fill="#13489E"/>
<path d="M74.8299 24.208H73.9414V23.9839H74.8299V24.208ZM73.0509 24.208H72.1624V23.9839H73.0509V24.208ZM71.2739 24.208H70.3854V23.9839H71.2739V24.208ZM69.4969 24.208H68.6084V23.9839H69.4969V24.208ZM67.7198 24.208H66.8313V23.9839H67.7198V24.208ZM65.9428 24.208H65.0543V23.9839H65.9428V24.208ZM64.1658 24.208H63.2773V23.9839H64.1658V24.208ZM62.3888 24.208H61.5003V23.9839H62.3888V24.208ZM60.6098 24.208H59.7213V23.9839H60.6098V24.208ZM58.8328 24.208H57.9442V23.9839H58.8328V24.208ZM57.0557 24.208H56.1672V23.9839H57.0557V24.208ZM55.2787 24.208H54.3902V23.9839H55.2787V24.208ZM53.5017 24.208H52.6132V23.9839H53.5017V24.208ZM51.7247 24.208H50.8362V23.9839H51.7247V24.208ZM49.9457 24.208H49.0571V23.9839H49.9457V24.208ZM48.1686 24.208H47.2801V23.9839H48.1686V24.208ZM46.3916 24.208H45.5031V23.9839H46.3916V24.208ZM44.6146 24.208H43.7261V23.9839H44.6146V24.208ZM42.8376 24.208H41.9491V23.9839H42.8376V24.208ZM41.0605 24.208H40.172V23.9839H41.0605V24.208ZM39.2835 24.208H38.395V23.9839H39.2835V24.208ZM37.5045 24.208H36.616V23.9839H37.5045V24.208ZM35.7275 24.208H34.839V23.9839H35.7275V24.208ZM33.9505 24.208H33.062V23.9839H33.9505V24.208ZM32.1735 24.208H31.2849V23.9839H32.1735V24.208ZM30.3964 24.208H29.5079V23.9839H30.3964V24.208ZM28.6194 24.208H27.7309V23.9839H28.6194V24.208ZM26.8424 24.208H25.9539V23.9839H26.8424V24.208ZM25.0634 24.208H24.1749V23.9839H25.0634V24.208ZM23.2864 24.208H22.3978V23.9839H23.2864V24.208ZM21.5093 24.208H20.6208V23.9839H21.5093V24.208ZM19.7323 24.208H18.8438V23.9839H19.7323V24.208ZM17.9553 24.208H17.0668V23.9839H17.9553V24.208ZM16.1783 24.208H15.2898V23.9839H16.1783V24.208ZM14.4012 24.208H13.5127V23.9839H14.4012V24.208ZM12.6222 24.208H11.7337V23.9839H12.6222V24.208ZM10.8452 24.208H9.95671V23.9839H10.8452V24.208ZM9.0682 24.208H8.17969V23.9839H9.0682V24.208Z" fill="#13489E"/>
<path d="M76.167 23.9839H75.7188V24.208H76.167V23.9839Z" fill="#13489E"/>
<path d="M79.5096 1.08301H3.55182C2.23741 1.08301 1.17188 2.14854 1.17188 3.46295V16.9552C1.17188 18.2696 2.23741 19.3352 3.55182 19.3352H79.5096C80.824 19.3352 81.8895 18.2696 81.8895 16.9552V3.46295C81.8895 2.14854 80.824 1.08301 79.5096 1.08301Z" fill="#54A6FF"/>
<path d="M71.7159 8.94873H12.1758V10.2081H71.7159V8.94873Z" fill="white"/>
<path d="M71.7159 10.6802H12.1758V11.9396H71.7159V10.6802Z" fill="white"/>
<path d="M81.8876 10.208H1.16797V10.68H81.8876V10.208Z" fill="white"/>
<path d="M29.7934 24.6304H22.6417C21.3273 24.6304 20.2617 25.6959 20.2617 27.0103V34.162C20.2617 35.4764 21.3273 36.542 22.6417 36.542H29.7934C31.1078 36.542 32.1733 35.4764 32.1733 34.162V27.0103C32.1733 25.6959 31.1078 24.6304 29.7934 24.6304Z" fill="#A6BDF8"/>
<path d="M23.3806 30.753C22.7102 30.0687 22.611 28.7994 23.4083 27.9566C24.1699 27.1494 25.5066 27.1037 26.2801 27.8534C25.3162 28.8173 24.3524 29.7812 23.3806 30.753Z" fill="white"/>
<path d="M24.7254 31.4272C24.2474 31.3835 23.8567 31.205 23.5195 30.9036C24.4894 29.9338 25.4572 28.9679 26.429 27.9961C26.6353 28.2182 26.786 28.48 26.8733 28.7755C26.9903 29.1662 26.9903 29.5609 26.8812 29.9556C26.8614 30.029 26.8276 30.0508 26.7523 30.0547C26.2327 30.0885 25.7289 30.1876 25.2767 30.4593C25.1359 30.5446 25.0129 30.6656 24.8939 30.7846C24.767 30.9115 24.7174 31.0761 24.7254 31.2566C24.7254 31.3062 24.7254 31.3578 24.7254 31.4252V31.4272Z" fill="white"/>
<path d="M24.9008 31.7031C25.3807 32.1692 25.9598 32.3199 26.5727 32.3854C27.1696 32.4488 27.7607 32.4092 28.3358 32.2227C28.6551 32.1196 28.9506 31.9709 29.2204 31.7289C29.2085 31.955 29.2263 32.187 29.1747 32.4052C29.1192 32.6373 28.911 32.7662 28.7087 32.8772C28.3576 33.0696 27.9788 33.1648 27.5822 33.2124C26.9951 33.2838 26.418 33.2461 25.8527 33.0676C25.5711 32.9784 25.3054 32.8594 25.0931 32.6432C24.9642 32.5103 24.8928 32.3596 24.8988 32.1692C24.9047 32.0224 24.8988 31.8737 24.8988 31.7031H24.9008Z" fill="white"/>
<path d="M25.7422 32.0205C26.1765 31.7845 26.593 31.5604 27.0075 31.3363C27.4914 31.0745 27.9773 30.8147 28.4613 30.5509C28.5228 30.5172 28.5723 30.5073 28.6338 30.5489C28.735 30.6164 28.844 30.6719 28.9392 30.7453C29.3061 31.0309 29.3022 31.4374 28.9353 31.723C28.612 31.9729 28.2332 32.0979 27.8385 32.1693C27.19 32.2843 26.5454 32.2645 25.9088 32.08C25.8612 32.0661 25.8136 32.0483 25.7422 32.0225V32.0205Z" fill="white"/>
<path d="M28.3201 30.4219C27.8322 30.6877 27.3621 30.9415 26.8921 31.1954C26.4617 31.4275 26.0314 31.6575 25.603 31.8915C25.5494 31.9213 25.5078 31.9332 25.4562 31.8935C25.3233 31.7924 25.1706 31.7091 25.0615 31.5881C24.8275 31.3283 24.8572 31.0427 25.1131 30.8027C25.3451 30.5846 25.6268 30.4636 25.9262 30.3783C26.7017 30.1582 27.4772 30.1681 28.2506 30.3942C28.2685 30.4001 28.2863 30.408 28.3201 30.4219Z" fill="white"/>
<path d="M60.1879 24.6304H53.0362C51.7218 24.6304 50.6562 25.6959 50.6562 27.0103V34.162C50.6562 35.4764 51.7218 36.542 53.0362 36.542H60.1879C61.5023 36.542 62.5679 35.4764 62.5679 34.162V27.0103C62.5679 25.6959 61.5023 24.6304 60.1879 24.6304Z" fill="#A6BDF8"/>
<path d="M53.7751 30.753C53.1047 30.0687 53.0056 28.7994 53.8028 27.9566C54.5644 27.1494 55.9012 27.1037 56.6746 27.8534C55.7108 28.8173 54.7469 29.7812 53.7751 30.753Z" fill="white"/>
<path d="M55.1199 31.4272C54.6419 31.3835 54.2512 31.205 53.9141 30.9036C54.8839 29.9338 55.8517 28.9679 56.8235 27.9961C57.0298 28.2182 57.1805 28.48 57.2678 28.7755C57.3848 29.1662 57.3848 29.5609 57.2757 29.9556C57.2559 30.029 57.2222 30.0508 57.1468 30.0547C56.6272 30.0885 56.1234 30.1876 55.6713 30.4593C55.5304 30.5446 55.4075 30.6656 55.2885 30.7846C55.1616 30.9115 55.112 31.0761 55.1199 31.2566C55.1199 31.3062 55.1199 31.3578 55.1199 31.4252V31.4272Z" fill="white"/>
<path d="M55.2953 31.7031C55.7753 32.1692 56.3544 32.3199 56.9672 32.3854C57.5642 32.4488 58.1552 32.4092 58.7303 32.2227C59.0496 32.1196 59.3452 31.9709 59.6149 31.7289C59.603 31.955 59.6208 32.187 59.5693 32.4052C59.5137 32.6373 59.3055 32.7662 59.1032 32.8772C58.7522 33.0696 58.3734 33.1648 57.9767 33.2124C57.3896 33.2838 56.8125 33.2461 56.2473 33.0676C55.9656 32.9784 55.6999 32.8594 55.4877 32.6432C55.3588 32.5103 55.2874 32.3596 55.2933 32.1692C55.2993 32.0224 55.2933 31.8737 55.2933 31.7031H55.2953Z" fill="white"/>
<path d="M56.1367 32.0205C56.5711 31.7845 56.9875 31.5604 57.4021 31.3363C57.886 31.0745 58.3719 30.8147 58.8558 30.5509C58.9173 30.5172 58.9669 30.5073 59.0283 30.5489C59.1295 30.6164 59.2386 30.6719 59.3338 30.7453C59.7007 31.0309 59.6967 31.4374 59.3298 31.723C59.0065 31.9729 58.6277 32.0979 58.2331 32.1693C57.5845 32.2843 56.9399 32.2645 56.3033 32.08C56.2557 32.0661 56.2081 32.0483 56.1367 32.0225V32.0205Z" fill="white"/>
<path d="M58.7146 30.4219C58.2267 30.6877 57.7567 30.9415 57.2866 31.1954C56.8563 31.4275 56.4259 31.6575 55.9975 31.8915C55.9439 31.9213 55.9023 31.9332 55.8507 31.8935C55.7178 31.7924 55.5651 31.7091 55.4561 31.5881C55.222 31.3283 55.2518 31.0427 55.5076 30.8027C55.7397 30.5846 56.0213 30.4636 56.3208 30.3783C57.0962 30.1582 57.8717 30.1681 58.6452 30.3942C58.663 30.4001 58.6809 30.408 58.7146 30.4219Z" fill="white"/>
<path d="M60.1879 52.8706H53.0362C51.7218 52.8706 50.6562 53.9361 50.6562 55.2505V62.4023C50.6562 63.7167 51.7218 64.7822 53.0362 64.7822H60.1879C61.5023 64.7822 62.5679 63.7167 62.5679 62.4023V55.2505C62.5679 53.9361 61.5023 52.8706 60.1879 52.8706Z" fill="#A6BDF8"/>
<path d="M53.7751 58.9932C53.1047 58.309 53.0056 57.0397 53.8028 56.1968C54.5644 55.3896 55.9012 55.344 56.6746 56.0937C55.7108 57.0575 54.7469 58.0214 53.7751 58.9932Z" fill="white"/>
<path d="M55.1199 59.6674C54.6419 59.6238 54.2512 59.4453 53.9141 59.1438C54.8839 58.174 55.8517 57.2081 56.8235 56.2363C57.0298 56.4585 57.1805 56.7203 57.2678 57.0158C57.3848 57.4065 57.3848 57.8011 57.2757 58.1958C57.2559 58.2692 57.2222 58.291 57.1468 58.295C56.6272 58.3287 56.1234 58.4279 55.6713 58.6996C55.5304 58.7849 55.4075 58.9058 55.2885 59.0248C55.1616 59.1518 55.112 59.3164 55.1199 59.4968C55.1199 59.5464 55.1199 59.598 55.1199 59.6654V59.6674Z" fill="white"/>
<path d="M55.2953 59.9434C55.7753 60.4094 56.3544 60.5602 56.9672 60.6256C57.5642 60.6891 58.1552 60.6494 58.7303 60.463C59.0496 60.3598 59.3452 60.2111 59.6149 59.9691C59.603 60.1952 59.6208 60.4273 59.5693 60.6454C59.5137 60.8775 59.3055 61.0064 59.1032 61.1175C58.7522 61.3098 58.3734 61.405 57.9767 61.4526C57.3896 61.524 56.8125 61.4864 56.2473 61.3079C55.9656 61.2186 55.6999 61.0996 55.4877 60.8834C55.3588 60.7506 55.2874 60.5998 55.2933 60.4094C55.2993 60.2627 55.2933 60.1139 55.2933 59.9434H55.2953Z" fill="white"/>
<path d="M56.1367 60.2608C56.5711 60.0247 56.9875 59.8006 57.4021 59.5765C57.886 59.3147 58.3719 59.0549 58.8558 58.7911C58.9173 58.7574 58.9669 58.7475 59.0283 58.7892C59.1295 58.8566 59.2386 58.9121 59.3338 58.9855C59.7007 59.2711 59.6967 59.6777 59.3298 59.9633C59.0065 60.2132 58.6277 60.3381 58.2331 60.4095C57.5845 60.5245 56.9399 60.5047 56.3033 60.3203C56.2557 60.3064 56.2081 60.2885 56.1367 60.2627V60.2608Z" fill="white"/>
<path d="M58.7146 58.6602C58.2267 58.926 57.7567 59.1798 57.2866 59.4337C56.8563 59.6657 56.4259 59.8958 55.9975 60.1298C55.9439 60.1596 55.9023 60.1715 55.8507 60.1318C55.7178 60.0307 55.5651 59.9474 55.4561 59.8264C55.222 59.5666 55.2518 59.281 55.5076 59.041C55.7397 58.8228 56.0213 58.7019 56.3208 58.6166C57.0962 58.3964 57.8717 58.4064 58.6452 58.6324C58.663 58.6384 58.6809 58.6463 58.7146 58.6602Z" fill="white"/>
<path d="M45.0004 38.1724H37.8487C36.5343 38.1724 35.4688 39.2379 35.4688 40.5523V47.704C35.4688 49.0184 36.5343 50.084 37.8487 50.084H45.0004C46.3148 50.084 47.3804 49.0184 47.3804 47.704V40.5523C47.3804 39.2379 46.3148 38.1724 45.0004 38.1724Z" fill="#A6BDF8"/>
<path d="M38.5837 44.295C37.9133 43.6107 37.8142 42.3414 38.6114 41.4985C39.373 40.6913 40.7098 40.6457 41.4832 41.3954C40.5194 42.3593 39.5555 43.3232 38.5837 44.295Z" fill="white"/>
<path d="M39.9285 44.9692C39.4505 44.9255 39.0598 44.747 38.7227 44.4456C39.6925 43.4758 40.6603 42.5099 41.6321 41.5381C41.8384 41.7602 41.9891 42.022 42.0764 42.3175C42.1934 42.7082 42.1934 43.1029 42.0843 43.4976C42.0645 43.571 42.0308 43.5928 41.9554 43.5967C41.4358 43.6305 40.932 43.7296 40.4798 44.0013C40.339 44.0866 40.2161 44.2076 40.0971 44.3266C39.9701 44.4535 39.9206 44.6181 39.9285 44.7986C39.9285 44.8482 39.9285 44.8998 39.9285 44.9672V44.9692Z" fill="white"/>
<path d="M40.1039 45.2451C40.5838 45.7112 41.163 45.8619 41.7758 45.9274C42.3728 45.9908 42.9638 45.9512 43.5389 45.7647C43.8582 45.6616 44.1538 45.5129 44.4235 45.2709C44.4116 45.497 44.4294 45.729 44.3779 45.9472C44.3223 46.1792 44.1141 46.3082 43.9118 46.4192C43.5608 46.6116 43.1819 46.7068 42.7853 46.7544C42.1982 46.8258 41.6211 46.7881 41.0559 46.6096C40.7742 46.5204 40.5085 46.4014 40.2963 46.1852C40.1674 46.0523 40.096 45.9016 40.1019 45.7112C40.1079 45.5644 40.1019 45.4157 40.1019 45.2451H40.1039Z" fill="white"/>
<path d="M40.9453 45.5625C41.3797 45.3265 41.7961 45.1024 42.2106 44.8783C42.6946 44.6165 43.1805 44.3567 43.6644 44.0929C43.7259 44.0592 43.7755 44.0493 43.8369 44.0909C43.9381 44.1584 44.0472 44.2139 44.1424 44.2873C44.5093 44.5729 44.5053 44.9794 44.1384 45.265C43.8151 45.5149 43.4363 45.6399 43.0416 45.7113C42.3931 45.8263 41.7485 45.8065 41.1119 45.622C41.0643 45.6081 41.0167 45.5903 40.9453 45.5645V45.5625Z" fill="white"/>
<path d="M43.5232 43.9639C43.0353 44.2297 42.5653 44.4835 42.0952 44.7374C41.6648 44.9694 41.2345 45.1995 40.8061 45.4335C40.7525 45.4633 40.7109 45.4752 40.6593 45.4355C40.5264 45.3344 40.3737 45.2511 40.2647 45.1301C40.0306 44.8703 40.0604 44.5847 40.3162 44.3447C40.5483 44.1265 40.8299 44.0056 41.1294 43.9203C41.9048 43.7001 42.6803 43.7101 43.4538 43.9362C43.4716 43.9421 43.4895 43.95 43.5232 43.9639Z" fill="white"/>
</g>
<defs>
<clipPath id="clip0_2205_20570">
<rect width="82.9826" height="70" rx="2" fill="white"/>
</clipPath>
</defs>
</svg>
