<svg width="94" height="70" viewBox="0 0 94 70" fill="none" xmlns="http://www.w3.org/2000/svg">
<path d="M57.7181 19.2393H58.7883V19.1089H57.7181C57.5954 19.1089 57.4961 19.2082 57.4961 19.3309V20.0789C57.4961 20.2016 57.5954 20.3009 57.7181 20.3009H58.7883V20.1705H57.7181C57.668 20.1705 57.6265 20.129 57.6265 20.0789V19.3309C57.6265 19.2808 57.668 19.2393 57.7181 19.2393ZM60.7897 19.1089H59.7195V19.2393H60.7897C60.8407 19.2393 60.8813 19.2799 60.8813 19.3309V20.0789C60.8813 20.129 60.8407 20.1705 60.7897 20.1705H59.7195V20.3009H60.7897C60.9124 20.3009 61.0117 20.2016 61.0117 20.0789V19.3309C61.0117 19.2082 60.9124 19.1089 60.7897 19.1089Z" fill="#007AFF"/>
<path d="M59.7178 20.1704V21.2407C59.7178 21.2908 59.6773 21.3322 59.6263 21.3322H58.8782C58.8281 21.3322 58.7867 21.2908 58.7867 21.2407V20.1704H58.6562V21.2407C58.6562 21.3633 58.7556 21.4627 58.8782 21.4627H59.6263C59.7489 21.4627 59.8483 21.3633 59.8483 21.2407V20.1704H59.7178ZM59.6263 17.947H58.8782C58.7556 17.947 58.6562 18.0464 58.6562 18.169V19.2393H58.7867V18.169C58.7867 18.1181 58.8273 18.0775 58.8782 18.0775H59.6263C59.6773 18.0775 59.7178 18.1181 59.7178 18.169V19.2393H59.8483V18.169C59.8483 18.0464 59.7489 17.947 59.6263 17.947Z" fill="#007AFF"/>
<path d="M66.9794 13.9867L68.6491 13.7051L68.6146 13.5012L66.9449 13.7828C66.754 13.8148 66.6253 13.9971 66.6572 14.188L66.8542 15.3541C66.8861 15.545 67.0684 15.6745 67.2593 15.6417L68.929 15.3601L68.8944 15.1563L67.2247 15.4379C67.1461 15.4508 67.071 15.3973 67.058 15.3195L66.8611 14.1534C66.8472 14.0748 66.9008 13.9996 66.9794 13.9867ZM71.7346 12.9743L70.0657 13.2559L70.1003 13.4598L71.7691 13.1782C71.8477 13.1652 71.9229 13.2179 71.9358 13.2965L72.1328 14.4626C72.1458 14.5412 72.0931 14.6164 72.0145 14.6294L70.3456 14.9109L70.3802 15.1148L72.049 14.8332C72.2399 14.8012 72.3695 14.619 72.3375 14.4281L72.1406 13.262C72.1069 13.0711 71.9255 12.9415 71.7346 12.9743Z" fill="#007AFF"/>
<path d="M70.3433 14.9118L70.6249 16.5806C70.6378 16.6592 70.5851 16.7344 70.5065 16.7473L69.3404 16.9443C69.2618 16.9572 69.1875 16.9037 69.1737 16.8259L68.8921 15.1571L68.6882 15.1917L68.9698 16.8605C69.0018 17.0514 69.1841 17.181 69.375 17.149L70.5411 16.9521C70.732 16.9201 70.8616 16.7378 70.8296 16.5469L70.548 14.8781L70.3433 14.9118ZM69.6151 11.4687L68.449 11.6657C68.2581 11.6976 68.1285 11.8799 68.1613 12.0708L68.4429 13.7396L68.6468 13.7051L68.3652 12.0362C68.3522 11.9576 68.4049 11.8825 68.4835 11.8695L69.6496 11.6726C69.7283 11.6596 69.8034 11.7123 69.8164 11.7909L70.098 13.4598L70.3018 13.4252L70.0202 11.7564C69.9883 11.5655 69.8069 11.4359 69.6151 11.4687Z" fill="#007AFF"/>
<path d="M64.1322 30.358H65.2024V30.2275H64.1322C64.0095 30.2275 63.9102 30.3269 63.9102 30.4495V31.1976C63.9102 31.3202 64.0095 31.4196 64.1322 31.4196H65.2024V31.2891H64.1322C64.0821 31.2891 64.0406 31.2477 64.0406 31.1976V30.4495C64.0406 30.3994 64.0821 30.358 64.1322 30.358ZM67.2029 30.2275H66.1336V30.358H67.2038C67.2548 30.358 67.2954 30.3986 67.2954 30.4495V31.1976C67.2954 31.2477 67.2548 31.2891 67.2038 31.2891H66.1336V31.4196H67.2038C67.3265 31.4196 67.4258 31.3202 67.4258 31.1976V30.4495C67.4258 30.3269 67.3256 30.2275 67.2029 30.2275Z" fill="#007AFF"/>
<path d="M66.1319 31.2891V32.3593C66.1319 32.4094 66.0913 32.4509 66.0403 32.4509H65.2923C65.2422 32.4509 65.2007 32.4094 65.2007 32.3593V31.2891H65.0703V32.3593C65.0703 32.482 65.1696 32.5813 65.2923 32.5813H66.0403C66.163 32.5813 66.2623 32.482 66.2623 32.3593V31.2891H66.1319ZM66.0403 29.0657H65.2923C65.1696 29.0657 65.0703 29.165 65.0703 29.2877V30.3579H65.2007V29.2877C65.2007 29.2367 65.2413 29.1961 65.2923 29.1961H66.0403C66.0913 29.1961 66.1319 29.2367 66.1319 29.2877V30.3579H66.2623V29.2877C66.2623 29.165 66.1621 29.0657 66.0403 29.0657Z" fill="#007AFF"/>
<path d="M28.6828 54.5986C29.1587 54.4673 29.5535 54.3576 30.0009 54.2341C32.7149 57.5787 35.4367 60.9336 38.1586 64.2886C38.213 64.261 38.2665 64.2342 38.3209 64.2074C35.7339 56.5214 33.1468 48.8345 30.482 40.9196C30.0545 42.046 29.7063 42.9555 29.3643 43.8668C28.935 45.0114 28.9367 45.0122 27.6462 44.9258C28.193 43.4349 28.7329 41.9648 29.2719 40.4937C29.2313 40.4445 29.1898 40.3961 29.1492 40.3469C26.1268 41.9803 23.1044 43.6129 20.0086 45.286C20.1407 44.4145 20.2098 43.6863 21.1341 43.2164C24.1971 41.659 27.21 40.0031 30.2436 38.3878C30.4138 38.2971 30.5961 38.2271 30.8569 38.1097C32.867 44.0733 34.8649 49.9989 36.862 55.9254C36.9207 55.9219 36.9795 55.9193 37.0382 55.9159C37.4839 54.4146 37.9366 52.9142 38.3728 51.4103C38.6613 50.4152 39.2366 49.3726 39.113 48.4251C38.9938 47.5103 38.1421 46.6923 37.6144 45.8302C37.5634 45.7473 37.5271 45.654 37.4546 45.5046C38.5222 44.4991 39.5959 43.4893 40.7879 42.3681C41.7778 43.4876 42.7289 44.5639 43.749 45.7179C43.3543 46.3321 42.8265 47.106 42.354 47.9128C42.208 48.1625 42.0949 48.5339 42.1674 48.793C42.8144 51.1011 43.5054 53.3962 44.1861 55.6947C44.2103 55.7768 44.2595 55.8511 44.3813 56.1068C46.406 50.0023 48.3764 44.0638 50.3674 38.0613C50.9781 38.3705 51.537 38.6288 52.0717 38.9285C57.0721 41.7376 62.058 44.5717 67.0697 47.36C70.0048 48.9934 71.7558 51.4639 72.737 54.6435C74.0889 59.0264 74.9725 63.5077 75.832 67.9995C75.9201 68.4581 75.9927 68.9203 76.0834 69.442C52.4578 69.442 28.8814 69.442 5.12109 69.442C5.97798 65.2215 6.82881 61.0304 7.71074 56.6864C8.66696 59.3235 7.91028 61.6756 7.43519 64.0485C7.16483 65.3986 6.93333 66.7556 6.67333 68.1714C17.6824 68.1714 28.5877 68.1714 39.6961 68.1714C35.9792 63.5907 32.3504 59.1179 28.6828 54.5986ZM52.2539 40.3952C52.209 40.4376 52.1649 40.4799 52.12 40.5222C52.1874 40.7269 52.2496 40.9334 52.3247 41.1355C53.0011 42.9668 53.6403 44.8135 54.3763 46.6215C54.6794 47.366 54.6924 47.8757 53.9703 48.3542C53.5125 48.6574 53.1445 49.0971 52.7178 49.4927C53.4442 50.3504 54.1128 51.1391 54.8151 51.9675C50.4538 57.3498 46.121 62.6975 41.701 68.1523C52.7515 68.1523 63.6257 68.1523 74.5873 68.1523C74.4629 67.4708 74.3584 66.8437 74.234 66.22C73.4039 62.0505 72.5746 57.881 71.1174 53.8678C70.4221 51.9511 69.382 50.3314 67.5949 49.2474C65.2272 47.8126 62.9122 46.288 60.5135 44.9077C57.7951 43.3425 55.0094 41.8939 52.2539 40.3952ZM50.953 49.37C51.5897 48.7896 52.1727 48.2203 52.7972 47.7029C53.1557 47.4058 53.2326 47.1449 53.0572 46.6957C52.3723 44.9474 51.7348 43.1801 51.0757 41.4223C51.0135 41.2573 50.9228 41.1027 50.7786 40.8047C48.1518 48.73 45.5751 56.5041 42.9984 64.2791C43.0468 64.3067 43.096 64.3335 43.1444 64.3612C46.4829 60.2443 49.8206 56.1284 53.1782 51.9882C52.4172 51.0933 51.7002 50.2494 50.953 49.37Z" fill="#007AFF"/>
<path d="M29.9032 5.1923C29.4964 5.37629 29.2649 5.47994 29.023 5.58964C29.6398 4.77336 31.1004 3.96917 32.3754 3.84392C33.044 3.77827 33.5942 3.55541 34.1211 3.15548C36.221 1.55833 38.5619 0.694534 41.2379 0.902708C41.5022 0.923439 41.7666 0.957127 42.0335 1.06769C41.5705 1.18517 41.1083 1.30178 40.4432 1.47022C42.0404 1.63952 43.419 1.68962 44.7579 1.94703C48.2156 2.61043 51.1802 4.10133 52.9708 7.32587C54.0376 9.24608 54.5084 11.3511 54.561 13.5201C54.6034 15.246 54.4358 16.977 54.3753 18.7055C54.3676 18.9301 54.3632 19.2592 54.4971 19.3689C55.7064 20.357 55.589 21.6355 55.2374 22.9026C54.9273 24.0212 54.3978 25.0267 53.0511 25.2513C52.8939 25.2772 52.7514 25.5933 52.6633 25.8007C51.9697 27.4375 51.2985 29.0839 50.6049 30.7208C50.0296 32.0787 48.9352 32.9736 47.7682 33.7812C45.7815 35.1555 43.6833 36.3061 41.2491 36.662C39.4749 36.9211 37.8838 36.275 36.3419 35.52C35.5671 35.1408 34.826 34.6856 34.0935 34.2278C32.2346 33.0669 30.8335 31.5233 30.0967 29.4174C29.6648 28.1821 29.1854 26.9625 28.7112 25.7419C28.6386 25.5545 28.5039 25.2755 28.3579 25.2478C26.5889 24.9144 26.1889 23.5332 25.9713 22.0803C25.8218 21.0861 25.9186 20.0979 26.8307 19.3896C26.943 19.3023 26.9214 18.994 26.9024 18.7944C26.6934 16.6073 26.3669 14.4262 26.2814 12.2348C26.1725 9.42488 27.3576 7.15916 29.6346 5.48426C29.6856 5.44626 29.7236 5.38925 29.9032 5.1923ZM51.7624 20.6101C51.8185 20.2378 51.8444 20.0443 51.8772 19.8517C52.3186 17.2007 52.4914 14.5506 51.98 11.8824C51.8565 11.2388 51.5689 11.0428 50.9746 11.1715C49.5761 11.4738 48.1647 11.7269 46.7826 12.0888C44.8961 12.5829 43.0588 13.2921 41.1524 13.6747C37.1124 14.4858 33.1727 14.25 29.5456 12.0085C29.4739 11.9644 29.3694 11.9713 29.2519 11.9489C28.6464 14.846 28.9686 17.6819 29.486 20.6205C29.0386 20.2715 28.6749 19.9865 28.2586 19.6617C27.8958 20.1549 27.4138 20.5687 27.2505 21.0844C26.9672 21.9801 27.2885 22.8456 27.844 23.5876C27.9735 23.7604 28.2361 23.9167 28.4477 23.9305C29.2355 23.9841 29.5923 24.4264 29.8514 25.1304C30.4733 26.8217 31.116 28.5095 31.8614 30.149C32.1681 30.8236 32.6812 31.4542 33.2349 31.9578C34.7871 33.3692 36.5855 34.4023 38.5697 35.0994C39.5924 35.4587 40.635 35.6237 41.7018 35.3317C44.3536 34.6062 46.6807 33.2941 48.6622 31.3885C48.9231 31.1372 49.1485 30.8141 49.2928 30.4815C50.0676 28.6918 50.7906 26.8795 51.5836 25.0984C51.7598 24.7019 52.0742 24.2415 52.443 24.0791C53.7499 23.5056 54.3036 22.7489 54.1723 21.3495C54.1447 21.0524 54.0065 20.7311 53.8251 20.4927C53.5962 20.1929 53.2705 19.9683 52.9483 19.6764C52.6158 19.9372 52.2539 20.2232 51.7624 20.6101Z" fill="#007AFF"/>
<path d="M8.96778 50.8627C7.97614 50.5819 7.04411 50.3461 6.13022 50.0542C4.64277 49.5791 3.57858 48.5805 2.81239 47.2434C1.72229 45.3413 1.22042 43.2552 0.937964 41.1105C0.545803 38.1312 0.353177 35.1468 1.00188 32.1754C1.35431 30.561 1.93046 29.0398 3.08881 27.8115C4.08994 26.749 5.28284 26.1409 6.7962 26.3517C6.95773 26.3742 7.13481 26.3258 7.29893 26.286C7.94937 26.128 8.41495 26.3491 8.6905 26.9564C8.95827 27.5472 8.8002 28.2831 8.31993 28.6382C7.79993 29.0225 7.30239 28.9491 6.85235 28.5086C6.29693 27.9653 5.65254 28.1769 5.24224 28.5561C4.58662 29.1616 3.9526 29.8691 3.55266 30.6577C2.61372 32.5097 2.45651 34.5551 2.52561 36.5945C2.5809 38.2237 2.7191 39.8562 2.93592 41.4715C3.24083 43.7424 4.52616 45.286 6.73574 45.9408C8.922 46.5886 11.1376 46.5653 13.3187 45.8855C15.2251 45.2912 16.5113 43.9532 16.8749 42.0416C17.5012 38.7488 17.7042 35.4094 16.8862 32.0994C16.5925 30.9108 16.1027 29.8025 15.1957 28.9327C14.3976 28.1665 13.7834 28.0931 12.8393 28.6278C12.3728 28.8912 11.9202 28.8532 11.5453 28.4792C11.0512 27.9869 10.9718 27.3917 11.2905 26.7758C11.5427 26.2886 11.9582 26.0692 12.5214 26.1556C12.9283 26.2178 13.3368 26.2774 13.7471 26.3016C15.1534 26.3845 16.2349 27.0635 17.0917 28.1311C18.4617 29.838 19.0223 31.8696 19.1813 33.985C19.4715 37.8583 19.2875 41.7134 18.01 45.4242C17.6696 46.4124 17.1133 47.3531 16.5147 48.2186C15.4946 49.6957 13.8206 50.0585 12.2096 50.4627C10.9079 50.7892 10.9027 50.7651 10.8914 52.1514C10.8724 54.6038 10.8448 57.0595 11.5574 59.441C12.0982 61.2463 13.0017 62.7718 14.9746 63.3116C16.6339 63.766 18.2769 63.6235 19.8308 62.9117C21.5766 62.1118 22.3427 60.6037 22.5397 58.7707C22.6978 57.2962 22.4516 55.8709 22.0197 54.4552C21.7692 53.6354 21.5541 52.7682 21.542 51.92C21.4979 48.8872 24.0954 47.0603 26.9709 48.0312C27.4581 48.1953 27.9496 48.3473 28.4368 48.5106C29.0458 48.7144 29.3766 49.1359 29.3775 49.7829C29.3783 50.4282 29.0682 50.8825 28.4437 51.0501C27.8382 51.2125 27.2586 51.0734 26.9735 50.4861C26.5503 49.6145 25.8014 49.668 25.0732 49.7484C24.2906 49.8339 23.6531 50.3263 23.5918 51.095C23.521 51.9796 23.6065 52.9176 23.8362 53.7745C24.2621 55.363 24.6292 56.9412 24.4849 58.5962C24.1178 62.7951 21.4979 65.2794 17.2593 65.4547C13.2539 65.6206 10.6582 63.6511 9.60785 59.663C8.95741 57.1925 8.94446 54.6703 8.96691 52.1428C8.97123 51.7014 8.96778 51.2609 8.96778 50.8627ZM4.75679 46.5549C5.45992 48.0286 8.06511 49.1161 10.3887 48.8172C12.9706 48.4846 15.1067 47.7737 15.3763 46.3183C11.8848 48.1037 8.34066 48.0329 4.75679 46.5549Z" fill="#A6BDF8"/>
<path d="M24.9219 50.924C25.5447 50.6943 26.0379 50.7763 26.4655 51.2117C27.1349 51.8915 27.9218 52.1342 28.8297 51.7826C29.6684 51.4578 30.147 50.8014 30.2057 49.922C30.2687 48.9684 29.7963 48.2679 28.9489 47.8291C28.2319 47.4576 27.5124 47.0931 26.8101 46.7338C27.7793 45.9166 30.1573 46.4556 31.0643 48.1694C31.9894 49.9186 31.2397 52.1187 29.4153 52.9099C27.6238 53.6864 25.5844 52.8088 24.9219 50.924Z" fill="#A6BDF8"/>
<path d="M60.8095 61.6222C59.7453 61.6222 58.6803 61.6188 57.6161 61.6231C57.1963 61.6248 56.8646 61.5073 56.8482 61.0245C56.8326 60.5356 57.1635 60.3913 57.5807 60.3913C59.7842 60.3887 61.9869 60.374 64.1896 60.419C64.4271 60.4241 64.8106 60.7602 64.8573 60.9951C64.9445 61.44 64.5912 61.6265 64.1515 61.6239C63.0373 61.6179 61.923 61.6222 60.8095 61.6222Z" fill="#A6BDF8"/>
<path d="M92.7166 38.6592H66.7812V69.4413H92.7166V38.6592Z" fill="#007AFF"/>
<path d="M91.7586 39.46H67.7383V68.3046H91.7586V39.46Z" fill="#A6BDF8"/>
<path d="M82.5388 44.9408C82.5414 46.3056 81.4599 47.3922 80.0986 47.3922C78.7355 47.3922 77.6498 46.3056 77.6523 44.9442C77.6549 43.5812 78.7502 42.4773 80.0943 42.4842C81.4556 42.4919 82.5362 43.5769 82.5388 44.9408ZM81.396 45.4651C82.157 45.4617 82.157 45.4617 82.1268 44.6989C82.1259 44.686 82.1251 44.673 82.1268 44.6601C82.1527 44.4718 82.0706 44.4104 81.8841 44.4173C81.5593 44.4294 81.2328 44.4078 80.908 44.4225C80.6825 44.4329 80.6134 44.3517 80.6247 44.1297C80.6419 43.8058 80.6195 43.4793 80.6307 43.1545C80.6376 42.9662 80.5676 42.9161 80.3845 42.9048C79.5613 42.8582 79.5622 42.8521 79.5605 43.6598C79.5587 44.4199 79.5587 44.4199 78.7779 44.4199C78.0471 44.4208 78.0575 44.4208 78.0557 45.1585C78.0549 45.39 78.1032 45.4884 78.3537 45.4694C78.6388 45.4478 78.9273 45.4807 79.2124 45.4608C79.4793 45.4418 79.589 45.5239 79.5682 45.8054C79.5449 46.1164 79.5665 46.43 79.5579 46.7418C79.5536 46.9042 79.6114 46.9655 79.7781 46.9845C80.5987 47.0787 80.6281 47.0579 80.629 46.2443C80.629 45.4686 80.629 45.4686 81.396 45.4651Z" fill="#007AFF"/>
<path d="M85.8465 40.9455H74.3451C73.775 40.9455 73.3086 40.479 73.3086 39.9089V37.4091C73.3086 36.839 73.775 36.3726 74.3451 36.3726H85.8465C86.4166 36.3726 86.8831 36.839 86.8831 37.4091V39.9089C86.8831 40.479 86.4166 40.9455 85.8465 40.9455Z" fill="#007AFF"/>
<path d="M66.2639 22.5166C66.8454 22.5166 67.3169 22.0451 67.3169 21.4636C67.3169 20.8821 66.8454 20.4106 66.2639 20.4106C65.6824 20.4106 65.2109 20.8821 65.2109 21.4636C65.2109 22.0451 65.6824 22.5166 66.2639 22.5166Z" fill="#007AFF"/>
<path d="M58.7876 34.3791C59.1988 34.3791 59.5321 34.0457 59.5321 33.6345C59.5321 33.2233 59.1988 32.8899 58.7876 32.8899C58.3763 32.8899 58.043 33.2233 58.043 33.6345C58.043 34.0457 58.3763 34.3791 58.7876 34.3791Z" fill="#007AFF"/>
</svg>
