<svg width="58" height="50" viewBox="0 0 88 80" fill="none" xmlns="http://www.w3.org/2000/svg">
<path d="M28.3247 0L30.0117 6.85486C31.3058 12.1135 31.9529 14.7429 33.3273 16.8633C34.5427 18.7383 36.1616 20.3182 38.0658 21.4874C40.2192 22.8095 42.8635 23.3922 48.1523 24.5574L55.9931 26.285L48.1523 28.0126C42.8635 29.1778 40.2192 29.7605 38.0658 31.0827C36.1616 32.2518 34.5427 33.8317 33.3273 35.7067C31.9529 37.8272 31.3058 40.4565 30.0117 45.7151L28.3247 52.57L26.6377 45.7151C25.3435 40.4565 24.6965 37.8272 23.322 35.7067C22.1067 33.8317 20.4878 32.2518 18.5836 31.0827C16.4302 29.7605 13.7858 29.1778 8.49709 28.0126L0.65625 26.285L8.49708 24.5574C13.7858 23.3922 16.4302 22.8095 18.5836 21.4874C20.4878 20.3182 22.1067 18.7383 23.322 16.8633C24.6965 14.7428 25.3435 12.1135 26.6377 6.85486L28.3247 0Z" fill="#007AFF"/>
<path d="M69.776 46.2383C70.8685 50.7278 71.4147 52.9726 72.491 54.8363C73.8567 57.2013 75.8422 59.1485 78.2333 60.468C80.1175 61.5078 82.3725 62.0103 86.8825 63.0152L87.345 63.1183L86.8825 63.2213C82.3725 64.2263 80.1175 64.7288 78.2333 65.7686C75.8422 67.0881 73.8567 69.0353 72.491 71.4003C71.4147 73.2639 70.8685 75.5087 69.776 79.9983C68.6835 75.5087 68.1373 73.264 67.061 71.4003C65.6953 69.0353 63.7098 67.0881 61.3187 65.7686C59.4345 64.7288 57.1795 64.2263 52.6696 63.2213L52.207 63.1183L52.6696 63.0152C57.1795 62.0103 59.4345 61.5078 61.3187 60.468C63.7098 59.1485 65.6953 57.2013 67.0611 54.8363C68.1373 52.9726 68.6835 50.7278 69.776 46.2383Z" fill="#007AFF"/>
</svg>
