<svg width="70" height="70" viewBox="0 0 70 70" fill="none" xmlns="http://www.w3.org/2000/svg">
<path d="M53.0301 21.1794C51.2762 18.2705 48.9993 16.1414 46.5668 15.0415C45.3385 14.4854 44.4765 14.7543 43.2152 14.7543L23.5932 14.5061C22.1517 14.5061 20.8943 14.5165 19.6608 15.0415C15.4939 16.8096 12.6096 20.8476 11.6659 22.3189C10.1745 24.6412 10.1914 27.2208 10.2076 29.7149C10.2089 30.0604 10.2102 30.4071 10.2089 30.7506C10.1992 32.5259 10.1933 34.4315 10.1959 36.7486C10.1972 41.7465 10.2232 46.7022 10.2432 50.4621C10.2646 54.1974 10.2847 57.2897 10.3094 60.1954L10.3107 60.3561L10.3709 60.5052C10.4299 60.651 11.8494 64.0901 15.7843 63.9916C17.7572 63.9397 30.6845 63.9514 40.9933 63.9656C48.1191 63.9786 53.9932 63.9916 54.1365 63.9916L54.9875 63.9929V59.3463C54.9778 59.3476 54.9674 59.3476 54.9577 59.3476H50.1763C49.7751 59.3476 49.4471 59.0196 49.4471 58.6184C49.4471 58.6113 49.4471 58.6055 49.4484 58.5996C49.4471 58.597 49.4484 58.5925 49.4484 58.5899C49.4471 58.5815 49.4471 58.5724 49.4471 58.5627V51.9989C49.4471 51.5977 49.7751 51.2697 50.1763 51.2697C50.3766 51.2697 50.5587 51.3514 50.6909 51.4849C50.8244 51.6165 50.9061 51.7986 50.9061 51.9995V57.8899H54.9583C54.9681 57.8899 54.9784 57.8899 54.9882 57.8912V35.4018C54.9882 34.5734 55.0095 33.7224 55.0329 32.896C55.1372 28.9417 55.2448 24.8505 53.0314 21.1814L53.0301 21.1794Z" fill="#A6BDF8"/>
<path d="M52.6647 15.7577H12.0842C10.7412 15.7577 9.64844 14.665 9.64844 13.322V2.95552C9.64844 1.61255 10.7412 0.519775 12.0842 0.519775H52.6647C54.0077 0.519775 55.1005 1.61255 55.1005 2.95552V13.3213C55.1005 14.6643 54.0077 15.7571 52.6647 15.7571V15.7577ZM12.0842 1.95283C11.5313 1.95283 11.0815 2.40265 11.0815 2.95552V13.3213C11.0815 13.8742 11.5313 14.324 12.0842 14.324H52.6647C53.2176 14.324 53.6674 13.8742 53.6674 13.3213V2.95552C53.6674 2.40265 53.2176 1.95283 52.6647 1.95283H12.0842Z" fill="#007AFF"/>
<path d="M43.2135 36.0552V40.5559C43.2135 41.2922 42.6133 41.8931 41.8751 41.8931H36.2213V47.5481C36.2213 48.2857 35.6211 48.8866 34.8828 48.8866H30.3821C29.6458 48.8866 29.045 48.2864 29.045 47.5481V41.8931H23.3899C22.6549 41.8931 22.0547 41.2929 22.0547 40.5559V36.0552C22.0547 35.3176 22.6549 34.7168 23.3899 34.7168H29.045V29.0643C29.045 28.3267 29.6452 27.7258 30.3821 27.7258H34.8828C35.6211 27.7258 36.2213 28.326 36.2213 29.0643V34.7168H41.8751C42.6127 34.7168 43.2135 35.3169 43.2135 36.0552Z" fill="#007AFF"/>
<path d="M54.9848 47.3318C54.4377 47.1185 53.87 46.9422 53.284 46.8132C52.4816 46.6356 51.6494 46.541 50.7926 46.541C44.4582 46.541 39.3242 51.6763 39.3242 58.0126C39.3242 59.5156 39.612 60.9487 40.1383 62.2625C40.3749 62.8556 40.6601 63.4259 40.9906 63.9658C43.0012 67.2714 46.6386 69.4809 50.7926 69.4809C57.1256 69.4809 62.2609 64.3456 62.2609 58.0126C62.2609 53.158 59.2451 49.0066 54.9848 47.3318ZM55.4689 59.1339C55.3426 59.257 55.174 59.3387 54.9848 59.3458C54.9751 59.3471 54.9647 59.3471 54.955 59.3471H50.1736C49.7724 59.3471 49.4444 59.0192 49.4444 58.618C49.4444 58.6108 49.4444 58.605 49.4457 58.5992C49.4444 58.5966 49.4457 58.592 49.4457 58.5894C49.4444 58.581 49.4444 58.5719 49.4444 58.5622V51.9984C49.4444 51.5972 49.7724 51.2693 50.1736 51.2693C50.3738 51.2693 50.556 51.3509 50.6882 51.4844C50.8217 51.616 50.9034 51.7981 50.9034 51.9991V57.8894H54.9556C54.9653 57.8894 54.9757 57.8894 54.9854 57.8907C55.3711 57.9063 55.6848 58.2258 55.6848 58.6186C55.6848 58.8176 55.6012 59.0004 55.4689 59.1339Z" fill="#007AFF"/>
</svg>
